<?xml version="1.0" standalone="no"?><!DOCTYPE svg PUBLIC "-//W3C//DTD SVG 1.1//EN" "http://www.w3.org/Graphics/SVG/1.1/DTD/svg11.dtd"><svg t="1586518240870" class="icon" viewBox="0 0 1024 1024" version="1.1" xmlns="http://www.w3.org/2000/svg" p-id="28291" xmlns:xlink="http://www.w3.org/1999/xlink" width="200" height="200"><defs><style type="text/css"></style></defs><path d="M507.456 64C262.528 64 64 262.752 64 507.904c0 245.12 198.528 443.872 443.456 443.872 244.896 0 443.456-198.752 443.456-443.872C950.912 262.752 752.352 64 507.456 64z m0 843.408c-220.432 0-399.136-178.88-399.136-399.504C108.32 287.2 287.04 108.368 507.456 108.368c220.432 0 399.136 178.88 399.136 399.536 0 220.624-178.704 399.504-399.136 399.504z m201.28-430.96C639.76 429.44 514.656 359.072 443.36 315.52c-29.232-18.496-53.776-11.088-56.144 21.504-1.728 87.248 0 255.52 0 344.32 1.44 33.04 30.592 37.408 55.92 24.08L708.16 544.736c-0.496-0.272 54.272-30.464 0.592-68.288z" p-id="28292" fill="#000000"></path></svg>