<?xml version="1.0" standalone="no"?><!DOCTYPE svg PUBLIC "-//W3C//DTD SVG 1.1//EN" "http://www.w3.org/Graphics/SVG/1.1/DTD/svg11.dtd"><svg t="1586518174154" class="icon" viewBox="0 0 1024 1024" version="1.1" xmlns="http://www.w3.org/2000/svg" p-id="27473" xmlns:xlink="http://www.w3.org/1999/xlink" width="200" height="200"><defs><style type="text/css"></style></defs><path d="M430.8992 492.1344a32.2048 32.2048 0 0 1-23.8592-10.5472L261.12 321.5872a32.256 32.256 0 0 1 47.6672-43.4688l125.4912 137.5744 341.504-275.1488a32.256 32.256 0 0 1 40.448 50.2272L451.1232 484.9664a32.1536 32.1536 0 0 1-20.224 7.168zM802.5088 912.7424H378.0096a33.536 33.536 0 1 1 0-67.072h424.4992a43.9296 43.9296 0 0 0 43.8784-43.8784V475.3408a33.536 33.536 0 1 1 67.072 0v326.4512a111.104 111.104 0 0 1-110.9504 110.9504z" p-id="27474" fill="#ffffff"></path><path d="M615.424 725.6576H232.192a111.104 111.104 0 0 1-110.9504-110.9504V231.4752a111.104 111.104 0 0 1 110.9504-110.9504H501.76a33.536 33.536 0 0 1 0 67.1232H232.192a43.9296 43.9296 0 0 0-43.8784 43.8784v383.232a43.9296 43.9296 0 0 0 43.8784 43.8784h383.232a43.9296 43.9296 0 0 0 43.8784-43.8784V475.3408a33.536 33.536 0 0 1 67.1232 0v139.3664a111.104 111.104 0 0 1-111.0016 110.9504z" p-id="27475" fill="#ffffff"></path></svg>