<?xml version="1.0" standalone="no"?><!DOCTYPE svg PUBLIC "-//W3C//DTD SVG 1.1//EN" "http://www.w3.org/Graphics/SVG/1.1/DTD/svg11.dtd"><svg t="1586352699005" class="icon" viewBox="0 0 1024 1024" version="1.1" xmlns="http://www.w3.org/2000/svg" p-id="13863" xmlns:xlink="http://www.w3.org/1999/xlink" width="200" height="200"><defs><style type="text/css"></style></defs><path d="M621.341 461.006c43.302-34 71.237-86.668 71.237-145.856 0-102.308-83.223-185.535-185.538-185.535-102.311 0-185.535 83.223-185.535 185.535 0 59.189 27.965 111.856 71.237 145.856-114.028 45.57-194.928 156.974-194.928 287.061v61.845c0 17.093 13.83 30.926 30.926 30.926h556.608c17.093 0 30.919-13.83 30.919-30.926v-61.844c0.003-130.123-80.869-241.492-194.926-287.062v0zM507.044 191.459c68.215 0 123.689 55.473 123.689 123.689 0 68.219-55.473 123.695-123.689 123.695-68.219 0-123.694-55.474-123.694-123.695-0.001-68.215 55.473-123.689 123.694-123.689v0zM754.422 778.994h-494.765v-30.925c0-136.403 110.977-247.38 247.413-247.38 136.403 0 247.35 110.977 247.35 247.38v30.925zM754.422 778.994z" fill="#949494" p-id="13864"></path><path d="M300.033 471.757c0.848-1.87 0.848-3.863 1.267-5.797 0.3-1.178 0.636-2.294 0.788-3.534 0.238-2.444 0.092-4.769-0.243-7.154-0.119-1.267 0.181-2.478-0.119-3.745-0.181-0.727-0.693-1.239-0.908-1.966-0.479-1.386-1.143-2.625-1.808-3.922-1.274-2.659-2.659-5.073-4.562-7.217-0.273-0.3-0.603-0.515-0.905-0.817-2.806-2.929-6.041-5.162-9.724-6.764-33.461-14.916-55.084-48.138-55.084-84.736 0-43.063 29.169-80.147 70.961-90.201 16.609-4.018 26.816-20.719 22.833-37.329-4.046-16.606-20.81-26.693-37.329-22.83-69.666 16.791-118.314 78.639-118.314 150.357 0 39.138 14.889 75.826 40.193 103.728-80.475 41.706-132.96 125.109-132.96 219.481v47.834c0 17.093 13.83 30.926 30.919 30.926 17.093 0 30.926-13.83 30.926-30.926v-47.834c0-85.523 57.497-158.905 139.999-179.68 10.263-1.449 19.598-7.698 24.064-17.875v0zM300.033 471.757z" fill="#949494" p-id="13865"></path><path d="M806.879 449.835c25.305-27.903 40.19-64.593 40.19-103.731 0-69.847-47.047-131.271-114.416-149.36-16.458-4.41-33.43 5.346-37.902 21.831-4.438 16.519 5.346 33.46 21.838 37.902 40.403 10.838 68.637 47.712 68.637 89.628 0 36.597-21.589 69.755-55.019 84.705-3.742 1.632-7.037 3.892-9.871 6.853-0.243 0.273-0.546 0.454-0.788 0.727-1.931 2.143-3.318 4.621-4.621 7.308-0.633 1.296-1.326 2.507-1.78 3.863-0.211 0.693-0.726 1.239-0.905 1.963-0.3 1.267 0 2.477-0.124 3.745-0.33 2.386-0.478 4.711-0.238 7.158 0.153 1.235 0.484 2.353 0.784 3.531 0.421 1.933 0.421 3.926 1.267 5.802 4.473 10.174 13.804 16.429 24.066 17.872 82.501 20.78 139.998 94.157 139.998 179.68v47.838c0 17.089 13.83 30.919 30.926 30.919 17.089 0 30.919-13.83 30.919-30.919v-47.838c0-94.371-52.482-177.777-132.96-219.479v0zM806.879 449.835z" fill="#949494" p-id="13866"></path></svg>