<?xml version="1.0" standalone="no"?><!DOCTYPE svg PUBLIC "-//W3C//DTD SVG 1.1//EN" "http://www.w3.org/Graphics/SVG/1.1/DTD/svg11.dtd"><svg t="1586352974597" class="icon" viewBox="0 0 1024 1024" version="1.1" xmlns="http://www.w3.org/2000/svg" p-id="3691" xmlns:xlink="http://www.w3.org/1999/xlink" width="200" height="200"><defs><style type="text/css"></style></defs><path d="M 254.92 907.508 C 179.414 907.508 116.492 846.384 116.492 769.08 s 61.1239 -138.428 138.428 -138.428 c 30.562 0 59.3262 10.7866 84.4949 28.7642 l 7.19105 5.39329 V 220.762 c 0 -26.9664 21.5732 -48.5396 46.7418 -48.5396 l 462.025 -53.9329 h 3.59553 C 884.137 116.492 907.508 138.065 907.508 165.032 v 519.553 c 0 37.753 -14.3821 71.9105 -41.3485 97.0792 c -25.1687 25.1687 -61.1239 39.5508 -97.0792 39.5508 c -75.506 0 -138.428 -61.1239 -138.428 -138.428 c 0 -75.506 61.1239 -138.428 138.428 -138.428 c 30.562 0 61.1239 10.7866 84.4949 28.7642 l 7.19105 5.39329 V 337.617 l -467.418 50.3374 v 381.126 c -1.79776 77.3038 -62.9217 138.428 -138.428 138.428 Z m 1e-008 -228.316 c -50.3374 0 -91.6859 41.3485 -91.6859 91.6859 s 41.3485 91.6859 91.6859 91.6859 s 91.6859 -41.3485 91.6859 -91.6859 c -1.79776 -52.1351 -41.3485 -91.6859 -91.6859 -91.6859 Z m 514.16 -86.2926 c -50.3374 0 -91.6859 41.3485 -91.6859 91.6859 s 41.3485 91.6859 91.6859 91.6859 s 91.6859 -41.3485 91.6859 -91.6859 s -41.3485 -91.6859 -91.6859 -91.6859 Z m -377.53 -251.687 l 467.418 -50.3374 V 163.234 l -462.025 53.9329 h -5.39329 v 124.046 Z" fill="#ffffff" p-id="3692"></path></svg>