<?xml version="1.0" standalone="no"?><!DOCTYPE svg PUBLIC "-//W3C//DTD SVG 1.1//EN" "http://www.w3.org/Graphics/SVG/1.1/DTD/svg11.dtd"><svg t="1586353034516" class="icon" viewBox="0 0 1024 1024" version="1.1" xmlns="http://www.w3.org/2000/svg" p-id="5133" xmlns:xlink="http://www.w3.org/1999/xlink" width="200" height="200"><defs><style type="text/css"></style></defs><path d="M919.382291 960.691115l-45.636387 0c-15.424294-186.435133-171.329087-333.001233-361.745904-333.001233S165.67839 774.255982 150.254096 960.691115l-45.636387 0c13.184277-179.578981 142.251841-326.886979 312.855404-367.30041-86.792739-36.826743-147.655921-122.81721-147.655921-223.020376 0-133.760446 108.422362-242.182808 242.182808-242.182808s242.182808 108.422362 242.182808 242.182808c0 100.203166-60.878532 186.193633-147.655921 223.020376C777.129426 633.80516 906.198014 781.113157 919.382291 960.691115zM708.773596 370.370329c0-108.679211-88.094384-196.773596-196.773596-196.773596s-196.773596 88.094384-196.773596 196.773596 88.094384 196.773596 196.773596 196.773596S708.773596 479.050564 708.773596 370.370329z" p-id="5134" fill="#ffffff"></path></svg>