<?xml version="1.0" standalone="no"?><!DOCTYPE svg PUBLIC "-//W3C//DTD SVG 1.1//EN" "http://www.w3.org/Graphics/SVG/1.1/DTD/svg11.dtd"><svg t="1586352457577" class="icon" viewBox="0 0 1024 1024" version="1.1" xmlns="http://www.w3.org/2000/svg" p-id="9061" data-spm-anchor-id="a313x.7781069.0.i17" xmlns:xlink="http://www.w3.org/1999/xlink" width="200" height="200"><defs><style type="text/css"></style></defs><path d="M841.1 729.1c0 18.7-21.5 40.3-40.5 40.3H220.2c-18.9 0-37.2-17-37.2-35.8v-438c0-18.6 24.5-39.3 43.5-39.3h576.8c18.9 0 37.8 24.1 37.8 42.9 0.1 156.2 0.1 273.8 0 429.9z m-42.3-516.9H227.2c-52.2 0-88.2 34.1-88.4 85.9-0.5 143.4-0.5 286.8 0 430.1 0.2 50.8 36.8 85.7 87.7 85.7 190.6 0.1 381.1 0.1 571.7 0 51.5 0 87.5-35.9 87.5-87.1V299.4c-0.1-51.8-35.3-87.2-86.9-87.2zM598.2 524.8c-0.1 0.1-0.1 0.1-0.3 0.2-42.5 31-127.8 92.7-127.8 92.7l-1.4 0.8-22.3 16.1V389.9l169.1 122.4-17.3 12.5z" fill="#ffffff" p-id="9062" data-spm-anchor-id="a313x.7781069.0.i16" class="selected"></path></svg>