<?xml version="1.0" standalone="no"?><!DOCTYPE svg PUBLIC "-//W3C//DTD SVG 1.1//EN" "http://www.w3.org/Graphics/SVG/1.1/DTD/svg11.dtd"><svg t="1586518102763" class="icon" viewBox="0 0 1024 1024" version="1.1" xmlns="http://www.w3.org/2000/svg" p-id="19741" xmlns:xlink="http://www.w3.org/1999/xlink" width="200" height="200"><defs><style type="text/css"></style></defs><path d="M760.889 879.125H263.11c-55.623 0-100.885-45.255-100.885-100.885V377.849c0-55.623 42.062-100.885 93.774-100.885h64v59.54h-64c-18.553 0-34.226 18.93-34.226 41.338V778.24c0 22.791 18.546 41.337 41.337 41.337H760.89c22.791 0 41.337-18.546 41.337-41.337V377.849c0-22.407-15.673-41.337-34.226-41.337h-64v-59.541h64c51.705 0 93.774 45.255 93.774 100.885v400.398c0 55.616-45.262 100.871-100.885 100.871z" fill="#ffffff" p-id="19742"></path><path d="M680.974 458.517c-10.617-11.577-28.615-12.352-40.185-1.728l-100.345 92.06V137.317c0-15.709-12.736-28.445-28.444-28.445s-28.444 12.736-28.444 28.445v410.097l-95.296-90.31c-11.4-10.81-29.412-10.319-40.207 1.08-10.809 11.406-10.318 29.405 1.081 40.206L492.437 634.19c0.135 0.128 0.292 0.206 0.427 0.334 1.18 1.081 2.44 2.091 3.804 2.966 0.064 0.042 0.121 0.1 0.185 0.135 1.174 0.74 2.411 1.394 3.698 1.963 0.164 0.07 0.334 0.092 0.49 0.156 1.238 0.52 2.504 0.882 3.791 1.216 0.548 0.142 1.074 0.356 1.621 0.462a28.42 28.42 0 0 0 5.533 0.57c1.813 0 3.62-0.193 5.404-0.534 0.633-0.121 1.245-0.363 1.87-0.526 1.131-0.3 2.255-0.59 3.343-1.024 0.718-0.285 1.386-0.683 2.076-1.032 0.96-0.483 1.913-0.952 2.823-1.543 0.662-0.433 1.273-0.953 1.906-1.443 0.597-0.47 1.252-0.854 1.82-1.373l148.011-135.8c11.577-10.625 12.36-28.623 1.735-40.2z" fill="#ffffff" p-id="19743"></path></svg>