<?xml version="1.0" standalone="no"?><!DOCTYPE svg PUBLIC "-//W3C//DTD SVG 1.1//EN" "http://www.w3.org/Graphics/SVG/1.1/DTD/svg11.dtd"><svg t="1586928644804" class="icon" viewBox="0 0 1024 1024" version="1.1" xmlns="http://www.w3.org/2000/svg" p-id="3248" xmlns:xlink="http://www.w3.org/1999/xlink" width="200" height="200"><defs><style type="text/css"></style></defs><path d="M719.872 209.408c113.152 0 205.312 91.648 205.312 203.264 0 172.544-271.872 393.728-410.112 488.448-138.24-94.208-410.112-315.392-410.112-488.448 0-112.128 91.648-203.264 205.312-203.264 62.464 0 120.32 27.648 159.744 75.776l45.568 55.808 45.568-55.808c37.888-48.128 96.768-75.776 158.72-75.776m0-58.368c-79.872 0-154.624 35.84-205.312 97.28-50.176-61.952-125.44-97.28-205.312-97.28C163.84 151.04 45.568 267.776 45.568 412.672c0 260.608 468.48 558.08 468.48 558.08s468.48-297.984 468.48-558.08c1.024-144.896-117.248-261.632-262.656-261.632z" p-id="3249" data-spm-anchor-id="a313x.7781069.0.i2" class="selected" fill="#ffffff"></path></svg>