<?xml version="1.0" standalone="no"?><!DOCTYPE svg PUBLIC "-//W3C//DTD SVG 1.1//EN" "http://www.w3.org/Graphics/SVG/1.1/DTD/svg11.dtd"><svg t="1586350280773" class="icon" viewBox="0 0 1024 1024" version="1.1" xmlns="http://www.w3.org/2000/svg" p-id="30962" xmlns:xlink="http://www.w3.org/1999/xlink" width="200" height="200"><defs><style type="text/css"></style></defs><path d="M950.857 1024H804.571a73.143 73.143 0 0 1-73.142-73.143V585.143A73.143 73.143 0 0 1 804.57 512h146.286A73.143 73.143 0 0 1 1024 585.143v365.714A73.143 73.143 0 0 1 950.857 1024z m-365.714 0H438.857a73.143 73.143 0 0 1-73.143-73.143V73.143A73.143 73.143 0 0 1 438.857 0h146.286a73.143 73.143 0 0 1 73.143 73.143v877.714A73.143 73.143 0 0 1 585.143 1024z m-365.714 0H73.143A73.143 73.143 0 0 1 0 950.857V292.571a73.143 73.143 0 0 1 73.143-73.142h146.286a73.143 73.143 0 0 1 73.142 73.142v658.286A73.143 73.143 0 0 1 219.43 1024z" p-id="30963" fill="#ffffff" data-spm-anchor-id="a313x.7781069.0.i24" class="selected"></path></svg>