<?xml version="1.0" standalone="no"?><!DOCTYPE svg PUBLIC "-//W3C//DTD SVG 1.1//EN" "http://www.w3.org/Graphics/SVG/1.1/DTD/svg11.dtd"><svg t="1586350299870" class="icon" viewBox="0 0 1024 1024" version="1.1" xmlns="http://www.w3.org/2000/svg" p-id="33125" xmlns:xlink="http://www.w3.org/1999/xlink" width="200" height="200"><defs><style type="text/css"></style></defs><path d="M825.453714 64a134.546286 134.546286 0 0 1 134.546286 134.546286V825.417143a134.546286 134.546286 0 0 1-134.546286 134.546286H198.582857a134.546286 134.546286 0 0 1-134.546286-134.546286V198.290286l0.182858-7.131429A134.546286 134.546286 0 0 1 198.582857 64H825.417143z m0.036572 80.969143H198.546286c-27.794286 0-50.724571 21.284571-53.321143 48.420571l-0.256 5.12v626.944c0.036571 27.830857 21.284571 50.688 48.420571 53.321143l5.12 0.256h626.980572c27.794286-0.036571 50.688-21.284571 53.321143-48.420571l0.219428-5.12V198.509714c0-27.794286-21.248-50.724571-48.384-53.321143l-5.156571-0.256z m35.291428 196.022857c14.774857 16.786286 13.165714 42.386286-3.766857 57.270857l-85.065143 72.338286v256.292571c0 1.682286-0.109714 3.291429-0.219428 3.108572 0.146286 2.450286 0.219429 4.973714 0.219428 7.68 0 74.422857-65.097143 134.509714-144.969143 134.509714-79.908571 0-144.969143-60.086857-144.969142-134.546286 0-74.459429 65.060571-134.509714 144.932571-134.509714a152.649143 152.649143 0 0 1 64 13.787429V437.394286l3.218286-6.948572 110.445714-93.988571a40.521143 40.521143 0 0 1 56.173714 4.534857z m-233.801143 343.113143c-35.584 0-64 24.356571-64 53.540571 0 29.184 28.416 53.577143 64 53.577143 35.547429 0 64-24.393143 64-53.577143s-28.452571-53.540571-64-53.540571z m-250.806857-14.08a40.484571 40.484571 0 0 1 0 81.005714H334.409143a40.484571 40.484571 0 0 1 0-81.005714h41.764571z m209.261715-208.969143A40.521143 40.521143 0 0 1 585.142857 541.988571H334.409143a40.484571 40.484571 0 0 1 0-80.969142h251.026286z m62.427428-208.969143a40.484571 40.484571 0 1 1 0 80.969143H334.409143a40.484571 40.484571 0 1 1 0-80.969143h313.453714z" fill="#ffffff" p-id="33126" data-spm-anchor-id="a313x.7781069.0.i26" class="selected"></path></svg>