<?xml version="1.0" standalone="no"?><!DOCTYPE svg PUBLIC "-//W3C//DTD SVG 1.1//EN" "http://www.w3.org/Graphics/SVG/1.1/DTD/svg11.dtd"><svg t="1586350512647" class="icon" viewBox="0 0 1024 1024" version="1.1" xmlns="http://www.w3.org/2000/svg" p-id="42096" xmlns:xlink="http://www.w3.org/1999/xlink" width="200" height="200"><defs><style type="text/css"></style></defs><path d="M512 524.8m-396.8 0a396.8 396.8 0 1 0 793.6 0 396.8 396.8 0 1 0-793.6 0Z" fill="#C11F29" p-id="42097"></path><path d="M512 934.4C286.72 934.4 102.4 750.08 102.4 524.8S286.72 115.2 512 115.2s409.6 184.32 409.6 409.6-184.32 409.6-409.6 409.6z m0-793.6c-211.2 0-384 172.8-384 384s172.8 384 384 384 384-172.8 384-384-172.8-384-384-384z" fill="#231C1C" p-id="42098"></path><path d="M512 524.8m-142.08 0a142.08 142.08 0 1 0 284.16 0 142.08 142.08 0 1 0-284.16 0Z" fill="#221711" p-id="42099"></path><path d="M512 679.68c-85.76 0-154.88-69.12-154.88-154.88S426.24 369.92 512 369.92 666.88 439.04 666.88 524.8 597.76 679.68 512 679.68z m0-284.16c-71.68 0-129.28 57.6-129.28 129.28S440.32 654.08 512 654.08 641.28 596.48 641.28 524.8 583.68 395.52 512 395.52z" fill="#231C1C" p-id="42100"></path><path d="M512 524.8m-64 0a64 64 0 1 0 128 0 64 64 0 1 0-128 0Z" fill="#F8F4BC" p-id="42101"></path><path d="M512 601.6c-42.24 0-76.8-34.56-76.8-76.8s34.56-76.8 76.8-76.8 76.8 34.56 76.8 76.8-34.56 76.8-76.8 76.8z m0-128c-28.16 0-51.2 23.04-51.2 51.2s23.04 51.2 51.2 51.2 51.2-23.04 51.2-51.2-23.04-51.2-51.2-51.2zM512 764.16c-7.68 0-12.8-5.12-12.8-12.8s5.12-12.8 12.8-12.8c117.76 0 213.76-96 213.76-213.76 0-7.68 5.12-12.8 12.8-12.8s12.8 5.12 12.8 12.8c0 131.84-107.52 239.36-239.36 239.36z" fill="#231C1C" p-id="42102"></path><path d="M285.44 537.6c-7.68 0-12.8-5.12-12.8-12.8 0-131.84 107.52-239.36 239.36-239.36 7.68 0 12.8 5.12 12.8 12.8s-5.12 12.8-12.8 12.8c-117.76 0-213.76 96-213.76 213.76 0 7.68-5.12 12.8-12.8 12.8z" fill="#231C1C" p-id="42103"></path><path d="M217.6 537.6c-7.68 0-12.8-5.12-12.8-12.8 0-168.96 138.24-307.2 307.2-307.2 7.68 0 12.8 5.12 12.8 12.8s-5.12 12.8-12.8 12.8c-154.88 0-281.6 126.72-281.6 281.6 0 7.68-5.12 12.8-12.8 12.8z" fill="#231C1C" p-id="42104"></path><path d="M512 832c-7.68 0-12.8-5.12-12.8-12.8s5.12-12.8 12.8-12.8c154.88 0 281.6-126.72 281.6-281.6 0-7.68 5.12-12.8 12.8-12.8s12.8 5.12 12.8 12.8c0 168.96-138.24 307.2-307.2 307.2z" fill="#231C1C" p-id="42105"></path></svg>