<?xml version="1.0" standalone="no"?><!DOCTYPE svg PUBLIC "-//W3C//DTD SVG 1.1//EN" "http://www.w3.org/Graphics/SVG/1.1/DTD/svg11.dtd"><svg t="1586438036538" class="icon" viewBox="0 0 1024 1024" version="1.1" xmlns="http://www.w3.org/2000/svg" p-id="5748" data-spm-anchor-id="a313x.7781069.0.i1" xmlns:xlink="http://www.w3.org/1999/xlink" width="200" height="200"><defs><style type="text/css"></style></defs><path d="M417.278 370.924c-15.921-13.079-39.753-17.097-59.895-10.248a60.018 60.018 0 0 0-18.702 10.31c-11.954 9.895-18.828 24.01-18.828 38.717V614.32c0 22.014 14.71 41.247 37.479 49.004a64.353 64.353 0 0 0 20.698 3.4c14.582 0 28.532-4.84 39.273-13.648L541.947 550.75c12.029-9.87 18.903-23.998 18.903-38.744s-6.874-28.873-18.903-38.755L417.278 370.924z m-32.804 242.134c-1.642 1.328-6.545 2.577-10.462 1.262-1.238-0.415-1.971-0.908-2.3-0.908a0.19 0.19 0 0 0-0.1 0.024l-0.128-202.419c0.48-0.379 1.264-0.91 2.528-1.326 3.917-1.353 8.82-0.09 10.437 1.251l123.102 101.09-123.077 101.026z" p-id="5749" fill="#2c2c2c"></path><path d="M932.404 334.417c-7.025-4.675-15.06-8.302-23.983-10.791-26.435-7.291-55.952-3.172-76.954 10.842l-41.445 27.762v-33.208c0-2.287-0.305-4.549-0.911-6.76-15.165-56.08-66.77-95.253-125.53-95.253H195.413c-71.85 0-130.304 57.457-130.304 128.081v313.82c0 70.623 58.456 128.08 130.304 128.08h468.17c58.76 0 110.365-39.161 125.53-95.24 0.606-2.21 0.91-4.472 0.91-6.76v-33.219l41.447 27.763c14.1 9.438 32.094 14.417 50.418 14.417 8.895 0 17.892-1.174 26.56-3.576 30.657-8.518 50.446-30.692 50.446-56.51V380.174c-0.001-17.767-9.606-34.41-26.489-45.757zM738.263 691.301c-10.084 31.908-40.335 53.932-74.68 53.932h-468.17c-43.317 0-78.547-34.244-78.547-76.322V355.09c0-42.079 35.23-76.323 78.546-76.323h468.17c34.346 0 64.597 22.025 74.68 53.944V691.3z m156.36-40.802c-11.777 3.273-25.954 1.655-34.345-3.981l-70.255-47.055V424.539l70.23-47.044c8.39-5.636 22.544-7.267 34.32-3.993 4.474 1.251 7.456 2.868 9.072 3.93 2.427 1.643 3.287 2.932 3.463 2.932 0 0 0.025-0.012 0.025-0.026l0.127 262.756c-0.38 0.872-3.742 4.942-12.636 7.405z" p-id="5750" fill="#000000" data-spm-anchor-id="a313x.7781069.0.i2" class="selected"></path></svg>